 <svg version="1.0" xmlns="http://www.w3.org/2000/svg" width="700.000000pt" height="774.000000pt" viewBox="0 0 700.000000 774.000000" preserveAspectRatio="xMidYMid meet">
<metadata>
Created by potrace 1.12, written by Peter Selinger 2001-2015
</metadata>
<g transform="translate(0.000000,774.000000) scale(0.100000,-0.100000)" fill="#000000" stroke="none">
<path d="M564 7297 c-2 -7 -3 -206 -2 -442 l3 -430 587 -3 588 -2 2 -1183 3
-1182 1345 0 1345 0 3 272 2 273 -1187 2 -1188 3 -3 1353 -2 1352 -745 0
c-601 0 -747 -3 -751 -13z"></path>
<path d="M5038 7303 c-2 -5 -2 -205 0 -445 l2 -438 375 0 375 0 2 -3092 3
-3093 365 0 365 0 3 3538 2 3537 -744 0 c-410 0 -746 -3 -748 -7z"></path>
<path d="M395 6408 c-3 -7 -4 -1397 -3 -3088 l3 -3075 23 -3 c25 -4 30 13 7
22 -13 5 -15 352 -13 3068 l3 3063 58 3 c31 2 57 7 57 12 0 15 -130 12 -135
-2z"></path>
<path d="M4447 6413 c-12 -11 -8 -1773 3 -1773 6 0 11 304 12 878 l3 877 268
3 c166 1 267 6 267 12 0 11 -542 14 -553 3z"></path>
<path d="M2100 2910 c0 -7 393 -10 1160 -10 767 0 1160 3 1160 10 0 7 -393 10
-1160 10 -767 0 -1160 -3 -1160 -10z"></path>
<path d="M1745 2888 c-3 -7 -4 -607 -3 -1333 l3 -1320 158 -3 157 -3 -2 1333
-3 1333 -153 3 c-116 2 -154 0 -157 -10z"></path>
<path d="M4442 1563 l3 -1318 28 -3 c31 -4 37 13 7 21 -20 5 -20 14 -20 1311
0 867 -3 1306 -10 1306 -7 0 -9 -441 -8 -1317z"></path>
<path d="M4530 250 c0 -6 77 -10 210 -10 133 0 210 4 210 10 0 6 -77 10 -210
10 -133 0 -210 -4 -210 -10z"></path>
<path d="M550 240 c0 -5 9 -10 20 -10 11 0 20 5 20 10 0 6 -9 10 -20 10 -11 0
-20 -4 -20 -10z"></path>
<path d="M5020 240 c0 -5 9 -10 20 -10 11 0 20 5 20 10 0 6 -9 10 -20 10 -11
0 -20 -4 -20 -10z"></path>
<path d="M1640 230 c0 -5 14 -10 30 -10 17 0 30 5 30 10 0 6 -13 10 -30 10
-16 0 -30 -4 -30 -10z"></path>
<path d="M5650 230 c0 -5 23 -10 50 -10 28 0 50 5 50 10 0 6 -22 10 -50 10
-27 0 -50 -4 -50 -10z"></path>
</g>
</svg>